<svg width="24" height="24" viewBox="0 0 24 24" fill="none" xmlns="http://www.w3.org/2000/svg">
<path d="M21.1537 0.608304C20.7877 0.216088 20.2831 0 19.7327 0H18.2199C17.105 0 16.0409 0.893325 15.8482 1.99145L15.7528 2.53452C15.6569 3.08098 15.7859 3.59858 16.1163 3.99199C16.4467 4.38541 16.9341 4.60199 17.489 4.60199H19.4432C19.7143 4.60199 19.9765 4.54785 20.2202 4.45174L20.0125 6.2261C19.8126 6.14209 19.5931 6.09733 19.3624 6.09733H17.1328C16.1777 6.09733 15.2395 6.85749 15.0413 7.79177L13.07 17.0854L3.76921 16.417C3.2666 16.3811 2.84701 16.5514 2.58687 16.8859C2.34321 17.1992 2.27198 17.6194 2.38617 18.0694L3.46751 22.327C3.70178 23.2494 4.66673 24 5.6184 24H13.4157H13.5346H17.5037C18.468 24 19.3355 23.2197 19.4372 22.2606L20.9629 7.87659C20.9716 7.79437 20.9726 7.71335 20.9698 7.63313L21.492 3.17269C21.5657 2.98058 21.6125 2.77638 21.6272 2.56459L21.6618 2.06807C21.7002 1.51901 21.5196 1.00062 21.1537 0.608304Z" fill="#747A88"/>
</svg>
