<svg width="24" height="24" viewBox="0 0 24 24" fill="none" xmlns="http://www.w3.org/2000/svg">
<path d="M12 13.4062C12.3883 13.4062 12.7031 13.0915 12.7031 12.7031C12.7031 12.3148 12.3883 12 12 12C11.6117 12 11.2969 12.3148 11.2969 12.7031C11.2969 13.0915 11.6117 13.4062 12 13.4062Z" fill="#747A88"/>
<path d="M12 0C5.39259 0 0 5.39292 0 12C0 18.6075 5.39292 24 12 24C18.6075 24 24 18.6071 24 12C24 5.39259 18.6071 0 12 0ZM12 2.85938C16.562 2.85938 20.354 6.21881 21.0324 10.5938H18.594C17.048 10.5938 15.5791 9.97336 14.5641 8.89167C13.1766 7.41295 10.8236 7.41248 9.43594 8.89163C8.42086 9.97336 6.95198 10.5938 5.40591 10.5938H2.96756C3.64598 6.21881 7.43798 2.85938 12 2.85938ZM12 14.8125C10.8369 14.8125 9.89062 13.8663 9.89062 12.7031C9.89062 11.54 10.8369 10.5938 12 10.5938C13.1632 10.5938 14.1094 11.54 14.1094 12.7031C14.1094 13.8663 13.1632 14.8125 12 14.8125ZM3.48844 15.3327C4.29328 15.0169 4.87444 14.8125 5.67188 14.8125C8.23538 14.8125 10.229 17.0969 9.84286 19.6636H9.84122C9.78384 20.0565 9.67097 20.4371 9.50817 20.7954C6.75384 20.014 4.52489 17.9706 3.48844 15.3327ZM14.4924 20.7952C14.3251 20.4275 14.2147 20.0468 14.1588 19.6636H14.1571C13.7072 16.6727 16.4681 14.2049 19.33 14.9322C19.6317 15.0089 20.0092 15.1357 20.5115 15.3327C19.4752 17.9704 17.2464 20.0137 14.4924 20.7952Z" fill="#747A88"/>
</svg>
