<svg width="154" height="19" viewBox="0 0 154 19" fill="none" xmlns="http://www.w3.org/2000/svg">
  <path
    d="M7.00391 11.4258H3.69922V18H0.734375V0.9375H6.73438C8.70312 0.9375 10.2227 1.37891 11.293 2.26172C12.3633 3.14453 12.8984 4.42188 12.8984 6.09375C12.8984 7.23438 12.6211 8.19141 12.0664 8.96484C11.5195 9.73047 10.7539 10.3203 9.76953 10.7344L13.6016 17.8477V18H10.4258L7.00391 11.4258ZM3.69922 9.04688H6.74609C7.74609 9.04688 8.52734 8.79688 9.08984 8.29688C9.65234 7.78906 9.93359 7.09766 9.93359 6.22266C9.93359 5.30859 9.67188 4.60156 9.14844 4.10156C8.63281 3.60156 7.85938 3.34375 6.82812 3.32812H3.69922V9.04688ZM28.0836 10.3828H21.0758V15.6328H29.2672V18H18.1109V0.9375H29.1852V3.32812H21.0758V8.03906H28.0836V10.3828ZM47.6164 18H44.6516L37.0461 5.89453V18H34.0812V0.9375H37.0461L44.675 13.0898V0.9375H47.6164V18ZM65.4969 3.32812H60.1766V18H57.2352V3.32812H51.9617V0.9375H65.4969V3.32812ZM87.3711 14.0273H80.7617L79.3789 18H76.2969L82.7422 0.9375H85.4023L91.8594 18H88.7656L87.3711 14.0273ZM81.5938 11.6367H86.5391L84.0664 4.55859L81.5938 11.6367ZM117.601 12.4453C117.429 14.2656 116.757 15.6875 115.585 16.7109C114.413 17.7266 112.855 18.2344 110.909 18.2344C109.55 18.2344 108.351 17.9141 107.312 17.2734C106.28 16.625 105.484 15.707 104.921 14.5195C104.359 13.332 104.066 11.9531 104.042 10.3828V8.78906C104.042 7.17969 104.327 5.76172 104.898 4.53516C105.468 3.30859 106.284 2.36328 107.347 1.69922C108.417 1.03516 109.652 0.703125 111.05 0.703125C112.933 0.703125 114.448 1.21484 115.597 2.23828C116.745 3.26172 117.413 4.70703 117.601 6.57422H114.648C114.507 5.34766 114.148 4.46484 113.57 3.92578C112.999 3.37891 112.159 3.10547 111.05 3.10547C109.761 3.10547 108.769 3.57812 108.073 4.52344C107.386 5.46094 107.034 6.83984 107.019 8.66016V10.1719C107.019 12.0156 107.347 13.4219 108.003 14.3906C108.667 15.3594 109.636 15.8438 110.909 15.8438C112.073 15.8438 112.948 15.582 113.534 15.0586C114.12 14.5352 114.491 13.6641 114.648 12.4453H117.601ZM132.212 14.0273H125.602L124.22 18H121.137L127.583 0.9375H130.243L136.7 18H133.606L132.212 14.0273ZM126.434 11.6367H131.38L128.907 4.55859L126.434 11.6367ZM147.315 11.4258H144.01V18H141.045V0.9375H147.045C149.014 0.9375 150.534 1.37891 151.604 2.26172C152.674 3.14453 153.209 4.42188 153.209 6.09375C153.209 7.23438 152.932 8.19141 152.377 8.96484C151.83 9.73047 151.065 10.3203 150.08 10.7344L153.913 17.8477V18H150.737L147.315 11.4258ZM144.01 9.04688H147.057C148.057 9.04688 148.838 8.79688 149.401 8.29688C149.963 7.78906 150.245 7.09766 150.245 6.22266C150.245 5.30859 149.983 4.60156 149.459 4.10156C148.944 3.60156 148.17 3.34375 147.139 3.32812H144.01V9.04688Z"
    fill="black" />
</svg>