<svg width="24" height="24" viewBox="0 0 24 24" fill="none" xmlns="http://www.w3.org/2000/svg">
<path d="M22.0267 5.64L22.0467 5.62L17.08 0.666687L15.6667 2.08L18.48 4.89331C17.2267 5.37331 16.3333 6.58 16.3333 8C16.3333 9.84 17.8266 11.3333 19.6666 11.3333C20.1399 11.3333 20.5933 11.2333 20.9999 11.0533V20.6666C21 21.4 20.4 22 19.6667 22C18.9334 22 18.3334 21.4 18.3334 20.6667V14.6667C18.3334 13.1934 17.1401 12 15.6667 12H14.3334V2.66669C14.3333 1.19331 13.14 0 11.6667 0H3.66669C2.19331 0 1 1.19331 1 2.66669V24H14.3333V14H16.3333V20.6667C16.3333 22.5067 17.8266 24 19.6666 24C21.5066 24 22.9999 22.5067 22.9999 20.6667V8C23 7.08 22.6267 6.24669 22.0267 5.64ZM11.6667 9.33331H3.66669V2.66669H11.6667V9.33331ZM19.6667 9.33331C18.9334 9.33331 18.3334 8.73331 18.3334 8C18.3334 7.26669 18.9334 6.66669 19.6667 6.66669C20.4 6.66669 21 7.26669 21 8C21 8.73331 20.4 9.33331 19.6667 9.33331Z" fill="#747A88"/>
</svg>
